<svg xmlns="http://www.w3.org/2000/svg" xmlns:svg="http://www.w3.org/2000/svg" id="svg8" width="173mm" height="62mm" version="1.1" viewBox="0 0 173 62"><defs id="defs2"><style id="style4487">.cls-1{fill:url(#linear-gradient)}.cls-2{opacity:.35;fill:url(#radial-gradient)}.cls-2,.cls-4{isolation:isolate}.cls-3{fill:url(#linear-gradient-2)}.cls-4{opacity:.41;fill:url(#radial-gradient-2)}.cls-5{fill:url(#radial-gradient-3)}.cls-6{fill:url(#radial-gradient-4)}</style><linearGradient id="linear-gradient" x1="63.33" x2="241.67" y1="84.03" y2="84.03" gradientTransform="matrix(1,0,0,-1,0,266)" gradientUnits="userSpaceOnUse"><stop id="stop4489" offset="0" stop-color="#0c59a4"/><stop id="stop4491" offset="1" stop-color="#114a8b"/></linearGradient><radialGradient id="radial-gradient" cx="161.83" cy="68.91" r="95.38" gradientTransform="matrix(1,0,0,-0.95,0,248.84)" gradientUnits="userSpaceOnUse"><stop id="stop4494" offset=".72" stop-opacity="0"/><stop id="stop4496" offset=".95" stop-opacity=".53"/><stop id="stop4498" offset="1"/></radialGradient><linearGradient id="linear-gradient-2" x1="157.35" x2="45.96" y1="161.39" y2="40.06" gradientTransform="matrix(1,0,0,-1,0,266)" gradientUnits="userSpaceOnUse"><stop id="stop4501" offset="0" stop-color="#1b9de2"/><stop id="stop4503" offset=".16" stop-color="#1595df"/><stop id="stop4505" offset=".67" stop-color="#0680d7"/><stop id="stop4507" offset="1" stop-color="#0078d4"/></linearGradient><radialGradient id="radial-gradient-2" cx="-340.29" cy="62.99" r="143.24" gradientTransform="matrix(0.15,-0.99,-0.8,-0.12,176.64,-125.4)" gradientUnits="userSpaceOnUse"><stop id="stop4510" offset=".76" stop-opacity="0"/><stop id="stop4512" offset=".95" stop-opacity=".5"/><stop id="stop4514" offset="1"/></radialGradient><radialGradient id="radial-gradient-3" cx="113.37" cy="570.21" r="202.43" gradientTransform="matrix(-0.04,1,2.13,0.08,-1179.54,-106.69)" gradientUnits="userSpaceOnUse"><stop id="stop4517" offset="0" stop-color="#35c1f1"/><stop id="stop4519" offset=".11" stop-color="#34c1ed"/><stop id="stop4521" offset=".23" stop-color="#2fc2df"/><stop id="stop4523" offset=".31" stop-color="#2bc3d2"/><stop id="stop4525" offset=".67" stop-color="#36c752"/></radialGradient><radialGradient id="radial-gradient-4" cx="376.52" cy="567.97" r="97.34" gradientTransform="matrix(0.28,0.96,0.78,-0.23,-303.76,-148.5)" gradientUnits="userSpaceOnUse"><stop id="stop4528" offset="0" stop-color="#66eb6e"/><stop id="stop4530" offset="1" stop-color="#66eb6e" stop-opacity="0"/></radialGradient></defs><metadata id="metadata5"/><g id="layer1" transform="translate(0,-235)"><rect id="rect4485" width="172" height="60" x=".756" y="236.244" ry="9.086" style="opacity:1;fill:#20989a;fill-opacity:1;stroke:none;stroke-width:0;stroke-miterlimit:4;stroke-dasharray:none;stroke-opacity:1;paint-order:stroke markers fill"/><g id="g4586" transform="matrix(0.18042983,0,0,0.18191038,10.112503,242.71284)"><path style="fill:url(#linear-gradient)" id="path4537" d="m 235.68,195.46 a 93.73,93.73 0 0 1 -10.54,4.71 101.87,101.87 0 0 1 -35.9,6.46 c -47.32,0 -88.54,-32.55 -88.54,-74.32 A 31.48,31.48 0 0 1 117.13,105 c -42.8,1.8 -53.8,46.4 -53.8,72.53 0,73.88 68.09,81.37 82.76,81.37 7.91,0 19.84,-2.3 27,-4.56 l 1.31,-0.44 a 128.34,128.34 0 0 0 66.6,-52.8 4,4 0 0 0 -5.32,-5.64 z" class="cls-1" transform="translate(-4.63,-4.92)"/><path style="opacity:.35;isolation:isolate;fill:url(#radial-gradient)" id="path4539" d="m 235.68,195.46 a 93.73,93.73 0 0 1 -10.54,4.71 101.87,101.87 0 0 1 -35.9,6.46 c -47.32,0 -88.54,-32.55 -88.54,-74.32 A 31.48,31.48 0 0 1 117.13,105 c -42.8,1.8 -53.8,46.4 -53.8,72.53 0,73.88 68.09,81.37 82.76,81.37 7.91,0 19.84,-2.3 27,-4.56 l 1.31,-0.44 a 128.34,128.34 0 0 0 66.6,-52.8 4,4 0 0 0 -5.32,-5.64 z" class="cls-2" transform="translate(-4.63,-4.92)"/><path style="fill:url(#linear-gradient-2)" id="path4541" d="M 110.34,246.34 A 79.2,79.2 0 0 1 87.6,225 80.72,80.72 0 0 1 117.13,105 c 3.12,-1.47 8.45,-4.13 15.54,-4 a 32.35,32.35 0 0 1 25.69,13 31.88,31.88 0 0 1 6.36,18.66 c 0,-0.21 24.46,-79.6 -80,-79.6 -43.9,0 -80,41.66 -80,78.21 a 130.15,130.15 0 0 0 12.11,56 128,128 0 0 0 156.38,67.11 75.55,75.55 0 0 1 -62.78,-8 z" class="cls-3" transform="translate(-4.63,-4.92)"/><path style="opacity:.41000001;isolation:isolate;fill:url(#radial-gradient-2)" id="path4543" d="M 110.34,246.34 A 79.2,79.2 0 0 1 87.6,225 80.72,80.72 0 0 1 117.13,105 c 3.12,-1.47 8.45,-4.13 15.54,-4 a 32.35,32.35 0 0 1 25.69,13 31.88,31.88 0 0 1 6.36,18.66 c 0,-0.21 24.46,-79.6 -80,-79.6 -43.9,0 -80,41.66 -80,78.21 a 130.15,130.15 0 0 0 12.11,56 128,128 0 0 0 156.38,67.11 75.55,75.55 0 0 1 -62.78,-8 z" class="cls-4" transform="translate(-4.63,-4.92)"/><path style="fill:url(#radial-gradient-3)" id="path4545" d="m 156.94,153.78 c -0.81,1.05 -3.3,2.5 -3.3,5.66 0,2.61 1.7,5.12 4.72,7.23 14.38,10 41.49,8.68 41.56,8.68 a 59.56,59.56 0 0 0 30.27,-8.35 61.38,61.38 0 0 0 30.43,-52.88 c 0.26,-22.41 -8,-37.31 -11.34,-43.91 C 228.09,28.76 182.35,4.92 132.61,4.92 a 128,128 0 0 0 -128,126.2 c 0.48,-36.54 36.8,-66.05 80,-66.05 3.5,0 23.46,0.34 42,10.07 16.34,8.58 24.9,18.94 30.85,29.21 6.18,10.67 7.28,24.15 7.28,29.52 0,5.37 -2.74,13.33 -7.8,19.91 z" class="cls-5" transform="translate(-4.63,-4.92)"/><path style="fill:url(#radial-gradient-4)" id="path4547" d="m 156.94,153.78 c -0.81,1.05 -3.3,2.5 -3.3,5.66 0,2.61 1.7,5.12 4.72,7.23 14.38,10 41.49,8.68 41.56,8.68 a 59.56,59.56 0 0 0 30.27,-8.35 61.38,61.38 0 0 0 30.43,-52.88 c 0.26,-22.41 -8,-37.31 -11.34,-43.91 C 228.09,28.76 182.35,4.92 132.61,4.92 a 128,128 0 0 0 -128,126.2 c 0.48,-36.54 36.8,-66.05 80,-66.05 3.5,0 23.46,0.34 42,10.07 16.34,8.58 24.9,18.94 30.85,29.21 6.18,10.67 7.28,24.15 7.28,29.52 0,5.37 -2.74,13.33 -7.8,19.91 z" class="cls-6" transform="translate(-4.63,-4.92)"/></g><g id="g4607" transform="translate(67.73337,2.7074)"><text style="font-style:normal;font-weight:400;font-size:14.11111069px;line-height:1.25;font-family:sans-serif;letter-spacing:0;word-spacing:0;fill:#fff;fill-opacity:1;stroke:none;stroke-width:.26458332" id="text4590" x="-.792" y="260.336" xml:space="preserve"><tspan id="tspan4588" x="-.792" y="260.336" style="font-size:14.11111069px;fill:#fff;stroke-width:.26458332">GET THE</tspan></text><text style="font-style:normal;font-weight:400;font-size:10.58333302px;line-height:1.25;font-family:sans-serif;letter-spacing:0;word-spacing:0;fill:#000;fill-opacity:1;stroke:none;stroke-width:.26458332" id="text4598" x="-.232" y="276.438" xml:space="preserve"><tspan id="tspan4596" x="-.232" y="276.438" style="font-style:normal;font-variant:normal;font-weight:700;font-stretch:normal;font-size:16.93333244px;font-family:sans-serif;-inkscape-font-specification:'sans-serif Bold';fill:#fff;stroke-width:.26458332"><tspan style="font-size:19.75555611px" id="tspan4600">ADD</tspan>-ON</tspan></text></g></g></svg>