<svg xmlns="http://www.w3.org/2000/svg" xmlns:osb="http://www.openswatchbook.org/uri/2009/osb" xmlns:svg="http://www.w3.org/2000/svg" xmlns:xlink="http://www.w3.org/1999/xlink" id="svg8" width="406.25" height="500" version="1.1" viewBox="268 268 541.667 666.667"><metadata id="metadata14"/><defs id="defs12"><linearGradient id="linearGradient4538"><stop style="stop-color:#b3b3b3;stop-opacity:1" id="stop4534" offset="0"/><stop style="stop-color:#b3b3b3;stop-opacity:0" id="stop4536" offset="1"/></linearGradient><linearGradient id="linearGradient4520"><stop style="stop-color:#333;stop-opacity:1" id="stop4516" offset="0"/><stop style="stop-color:#333;stop-opacity:0" id="stop4518" offset="1"/></linearGradient><linearGradient id="linearGradient6072" osb:paint="solid"><stop style="stop-color:#51b8b2;stop-opacity:1" id="stop6070" offset="0"/></linearGradient><linearGradient id="linearGradient4488"><stop style="stop-color:#f47721;stop-opacity:1" id="stop4484" offset="0"/><stop style="stop-color:#f47721;stop-opacity:0" id="stop4486" offset="1"/></linearGradient><linearGradient id="linearGradient4602" x1="265.607" x2="389.224" y1="264.551" y2="382.323" gradientTransform="matrix(10.416667,0,0,10.416664,-3234.5636,-2186.175)" gradientUnits="userSpaceOnUse" spreadMethod="pad" xlink:href="#linearGradient4488"/><linearGradient id="linearGradient4522" x1="846.715" x2="-428.206" y1="1013.044" y2="-358.075" gradientUnits="userSpaceOnUse" xlink:href="#linearGradient4520"/><linearGradient id="linearGradient4540" x1="886.097" x2="-444.446" y1="1021.697" y2="-297.354" gradientUnits="userSpaceOnUse" xlink:href="#linearGradient4538"/></defs><g id="layer1" style="display:inline"><path id="path2-4" d="m 434.85096,352.28639 v -41.66661 c 0,-20.83339 20.83333,-41.66659 41.66666,-41.66659 h 125.00002 c 20.83332,0 41.66665,20.8332 41.66665,41.66659 v 41.66661 h 124.99997 c 20.8334,0 41.6667,20.83342 41.6667,41.6668 v 83.33321 h -41.6667 l -26.0416,390.62581 c -5.2084,36.45765 -36.45837,67.70765 -72.9167,67.70765 h -259.375 c -41.66667,0 -72.91667,-31.25 -72.91667,-67.70765 L 309.85096,477.2864 h -41.66667 v -83.33321 c 0,-27.08338 20.83334,-41.6668 41.66667,-41.6668 z" style="fill:#fff;fill-opacity:1;stroke-width:0;stroke-miterlimit:4;stroke-dasharray:none"/></g><g id="layer2" style="display:inline"><path id="path2" d="m 434.85099,352.28637 v -41.66661 c 0,-20.83339 20.83333,-41.66659 41.66666,-41.66659 h 125.00003 c 20.83328,0 41.66658,20.8332 41.66658,41.66659 v 41.66661 h 125 c 20.8334,0 41.6667,20.83342 41.6667,41.6668 v 83.33321 h -41.6667 l -26.0416,390.62581 c -5.2084,36.45765 -36.4584,67.70765 -72.9167,67.70765 H 409.85099 c -41.66667,0 -72.91667,-31.25 -72.91667,-67.70765 L 309.85099,477.28638 h -41.66667 v -83.33321 c 0,-27.08338 20.83334,-41.6668 41.66667,-41.6668 z" style="fill:url(#linearGradient4522);fill-opacity:1;stroke-width:0;stroke-miterlimit:4;stroke-dasharray:none"/></g><g id="layer3" style="display:inline"><path id="path6" d="m 518.5374,550.42338 h 39.19489 l 2.11866,266.24279 h -41.66667 z m -52.43646,268.32419 -41.66666,3.12626 -15.625,-270.83346 h 41.66667 z m 148.95836,0 38.5417,3.12626 15.625,-270.83346 h -41.6667 z" style="fill:url(#linearGradient4540);fill-opacity:1;stroke-width:10.4166708"/></g></svg>